<svg xmlns="http://www.w3.org/2000/svg" xmlns:xlink="http://www.w3.org/1999/xlink" width="119.664" height="40" viewBox="0 0 119.664 40">
  <defs>
    <clipPath id="clip-path-apple">
      <rect id="Rectangle_51" data-name="Rectangle 51" width="119.664" height="40" fill="none"/>
    </clipPath>
  </defs>
  <g id="Group_318" data-name="Group 318" clip-path-apple="url(#clip-path-apple)">
    <path id="Path_515" data-name="Path 515" d="M110.135,0H9.535c-.367,0-.729,0-1.1,0-.306,0-.61.008-.919.013a13.167,13.167,0,0,0-2,.176,6.72,6.72,0,0,0-1.9.627A6.444,6.444,0,0,0,2,2,6.258,6.258,0,0,0,.82,3.618a6.594,6.594,0,0,0-.625,1.9,12.955,12.955,0,0,0-.18,2C.006,7.83,0,8.138,0,8.444V31.559c0,.31.006.611.015.921a12.932,12.932,0,0,0,.18,2A6.577,6.577,0,0,0,.82,36.387,6.206,6.206,0,0,0,2,38,6.276,6.276,0,0,0,3.616,39.18a6.76,6.76,0,0,0,1.9.631,13.426,13.426,0,0,0,2,.176c.309.007.613.011.919.011.366,0,.728,0,1.1,0h100.6c.359,0,.725,0,1.084,0,.305,0,.617,0,.922-.011a13.236,13.236,0,0,0,2-.176,6.848,6.848,0,0,0,1.908-.631A6.254,6.254,0,0,0,117.666,38a6.41,6.41,0,0,0,1.182-1.614,6.6,6.6,0,0,0,.619-1.905,13.588,13.588,0,0,0,.186-2c0-.31,0-.611,0-.921.008-.364.008-.725.008-1.094V9.536c0-.366,0-.729-.008-1.092,0-.306,0-.614,0-.921a13.613,13.613,0,0,0-.186-2,6.612,6.612,0,0,0-.619-1.9,6.474,6.474,0,0,0-2.8-2.8,6.807,6.807,0,0,0-1.908-.627,12.982,12.982,0,0,0-2-.176c-.305,0-.617-.011-.922-.013-.359,0-.725,0-1.084,0" fill="#a2a2a2"/>
    <path id="Path_516" data-name="Path 516" d="M8.445,39.125c-.3,0-.6,0-.9-.011a12.618,12.618,0,0,1-1.869-.163A5.861,5.861,0,0,1,4.015,38.4a5.39,5.39,0,0,1-1.4-1.016A5.329,5.329,0,0,1,1.6,35.99a5.752,5.752,0,0,1-.543-1.657,12.4,12.4,0,0,1-.166-1.875c-.006-.211-.015-.913-.015-.913V8.444s.009-.691.015-.894a12.35,12.35,0,0,1,.165-1.872A5.755,5.755,0,0,1,1.6,4.016a5.338,5.338,0,0,1,1.015-1.4A5.585,5.585,0,0,1,4.014,1.6a5.825,5.825,0,0,1,1.654-.544A12.638,12.638,0,0,1,7.543.887l.9-.012H111.214l.913.013a12.382,12.382,0,0,1,1.859.162,5.956,5.956,0,0,1,1.67.548,5.593,5.593,0,0,1,2.415,2.42,5.77,5.77,0,0,1,.536,1.649,12.954,12.954,0,0,1,.173,1.887c0,.283,0,.588,0,.89.008.375.008.732.008,1.092V30.465c0,.363,0,.718-.008,1.075,0,.325,0,.623,0,.93a12.691,12.691,0,0,1-.17,1.853,5.771,5.771,0,0,1-.54,1.67,5.5,5.5,0,0,1-1.016,1.386,5.4,5.4,0,0,1-1.4,1.022,5.842,5.842,0,0,1-1.668.55,12.484,12.484,0,0,1-1.87.163c-.293.007-.6.011-.9.011l-1.084,0Z"/>
    <path id="Path_517" data-name="Path 517" d="M24.769,20.3a4.947,4.947,0,0,1,2.357-4.152,5.066,5.066,0,0,0-3.992-2.158C21.455,13.815,19.827,15,18.971,15c-.872,0-2.189-.987-3.608-.958a5.315,5.315,0,0,0-4.473,2.728c-1.934,3.348-.491,8.269,1.361,10.976.927,1.325,2.01,2.806,3.428,2.753,1.387-.057,1.9-.884,3.579-.884s2.145.884,3.591.851c1.489-.024,2.426-1.331,3.321-2.669A10.955,10.955,0,0,0,27.688,24.7a4.783,4.783,0,0,1-2.919-4.4" fill="#fff"/>
    <path id="Path_518" data-name="Path 518" d="M22.037,12.211A4.874,4.874,0,0,0,23.152,8.72a4.959,4.959,0,0,0-3.208,1.66A4.634,4.634,0,0,0,18.8,13.741a4.1,4.1,0,0,0,3.237-1.53" fill="#fff"/>
    <path id="Path_519" data-name="Path 519" d="M42.3,27.14H37.569L36.432,30.5H34.427l4.484-12.418h2.083L45.477,30.5H43.438Zm-4.243-1.549h3.752l-1.85-5.447H39.91Z" fill="#fff"/>
    <path id="Path_520" data-name="Path 520" d="M55.16,25.97c0,2.813-1.507,4.621-3.778,4.621a3.068,3.068,0,0,1-2.849-1.584H48.49v4.484H46.632V21.443h1.8v1.506h.034a3.209,3.209,0,0,1,2.882-1.6c2.3,0,3.813,1.816,3.813,4.622m-1.91,0c0-1.833-.947-3.038-2.394-3.038-1.419,0-2.375,1.23-2.375,3.038,0,1.824.956,3.046,2.375,3.046,1.447,0,2.394-1.2,2.394-3.046" fill="#fff"/>
    <path id="Path_521" data-name="Path 521" d="M65.124,25.97c0,2.813-1.506,4.621-3.778,4.621A3.069,3.069,0,0,1,58.5,29.007h-.043v4.484H56.6V21.443h1.8v1.506h.034a3.211,3.211,0,0,1,2.883-1.6c2.3,0,3.812,1.816,3.812,4.622m-1.91,0c0-1.833-.947-3.038-2.393-3.038-1.42,0-2.375,1.23-2.375,3.038,0,1.824.955,3.046,2.375,3.046,1.446,0,2.393-1.2,2.393-3.046" fill="#fff"/>
    <path id="Path_522" data-name="Path 522" d="M71.711,27.036c.138,1.231,1.334,2.04,2.969,2.04,1.565,0,2.693-.809,2.693-1.919,0-.964-.68-1.541-2.289-1.936l-1.609-.388c-2.281-.551-3.339-1.617-3.339-3.348,0-2.142,1.867-3.614,4.518-3.614,2.624,0,4.422,1.472,4.484,3.614H77.262c-.113-1.239-1.137-1.987-2.634-1.987s-2.521.757-2.521,1.858c0,.878.654,1.395,2.254,1.79l1.368.336c2.548.6,3.607,1.626,3.607,3.443,0,2.323-1.851,3.778-4.794,3.778-2.754,0-4.613-1.421-4.733-3.667Z" fill="#fff"/>
    <path id="Path_523" data-name="Path 523" d="M83.346,19.3v2.143h1.722v1.471H83.346v4.991c0,.776.345,1.137,1.1,1.137A5.7,5.7,0,0,0,85.059,29v1.463a5.083,5.083,0,0,1-1.032.086c-1.833,0-2.548-.688-2.548-2.444v-5.19H80.162V21.443h1.317V19.3Z" fill="#fff"/>
    <path id="Path_524" data-name="Path 524" d="M86.065,25.97c0-2.849,1.677-4.639,4.294-4.639s4.295,1.79,4.295,4.639-1.662,4.639-4.295,4.639-4.294-1.783-4.294-4.639m6.695,0c0-1.954-.9-3.107-2.4-3.107s-2.4,1.162-2.4,3.107c0,1.962.895,3.106,2.4,3.106s2.4-1.144,2.4-3.106" fill="#fff"/>
    <path id="Path_525" data-name="Path 525" d="M96.186,21.442h1.772v1.541H98a2.161,2.161,0,0,1,2.178-1.636,2.815,2.815,0,0,1,.637.07v1.738a2.591,2.591,0,0,0-.835-.112,1.873,1.873,0,0,0-1.937,2.083V30.5H96.186Z" fill="#fff"/>
    <path id="Path_526" data-name="Path 526" d="M109.384,27.837c-.25,1.644-1.85,2.772-3.9,2.772-2.634,0-4.269-1.765-4.269-4.6s1.644-4.682,4.191-4.682c2.505,0,4.08,1.721,4.08,4.466v.637h-6.395v.112a2.359,2.359,0,0,0,2.436,2.565,2.049,2.049,0,0,0,2.091-1.274Zm-6.282-2.7h4.526a2.177,2.177,0,0,0-2.22-2.3,2.292,2.292,0,0,0-2.306,2.3" fill="#fff"/>
    <path id="Path_527" data-name="Path 527" d="M38.008,8.731a1.883,1.883,0,0,1,1.968,1.989,1.9,1.9,0,0,1-2,1.968H36.6V14.7h-.927V8.731ZM36.6,11.874h1.166c.8,0,1.266-.414,1.266-1.154,0-.757-.452-1.17-1.266-1.17H36.6Z" fill="#fff"/>
    <path id="Path_528" data-name="Path 528" d="M40.842,12.444a2.133,2.133,0,1,1,4.247,0,2.134,2.134,0,1,1-4.247,0m3.333,0c0-.976-.438-1.547-1.208-1.547s-1.207.571-1.207,1.547.435,1.55,1.207,1.55,1.208-.57,1.208-1.55" fill="#fff"/>
    <path id="Path_529" data-name="Path 529" d="M47.244,13.986h-.067V14.7h-.855V8.437h.889V10.91h.07a1.5,1.5,0,0,1,1.386-.79c1.14,0,1.86.893,1.86,2.324s-.724,2.328-1.86,2.328a1.558,1.558,0,0,1-1.423-.786m-.05-1.538c.005.943.468,1.526,1.216,1.526s1.2-.575,1.2-1.53-.45-1.526-1.2-1.526-1.211.587-1.216,1.53" fill="#fff"/>
    <path id="Path_530" data-name="Path 530" d="M51.6,8.863a.575.575,0,1,1,.575.542.548.548,0,0,1-.575-.542m.131,1.332h.886v4.5h-.886Z" fill="#fff"/>
    <path id="Path_531" data-name="Path 531" d="M57.863,13.482a1.828,1.828,0,0,1-1.951,1.3,2.045,2.045,0,0,1-2.08-2.324,2.077,2.077,0,0,1,2.076-2.353c1.253,0,2.009.856,2.009,2.27v.31h-3.18v.05a1.19,1.19,0,0,0,1.2,1.29,1.081,1.081,0,0,0,1.072-.546Zm-3.126-1.451h2.274A1.086,1.086,0,0,0,55.9,10.864a1.152,1.152,0,0,0-1.166,1.167" fill="#fff"/>
    <path id="Path_532" data-name="Path 532" d="M59.11,10.195h.855v.69h.067a1.222,1.222,0,0,1,1.216-.765,1.926,1.926,0,0,1,.4.037v.877a2.434,2.434,0,0,0-.5-.053A1.054,1.054,0,0,0,60,12.039V14.7H59.11Z" fill="#fff"/>
    <path id="Path_533" data-name="Path 533" d="M62.523,14.094,65,11.017v-.07H62.54V10.2h3.523v.649l-2.424,3.031v.07h2.449V14.7H62.523Z" fill="#fff"/>
    <path id="Path_534" data-name="Path 534" d="M74.47,14.7h-.922l-.931-3.316h-.07L71.62,14.7h-.913l-1.241-4.5h.9l.807,3.436h.067l.925-3.436h.853l.926,3.436h.07l.8-3.436h.888Z" fill="#fff"/>
  </g>
</svg>
