<svg id="Group_324" data-name="Group 324" xmlns="http://www.w3.org/2000/svg" xmlns:xlink="http://www.w3.org/1999/xlink" width="135" height="40" viewBox="0 0 135 40">
  <defs>
    <clipPath id="clip-path-google">
      <rect id="Rectangle_52" data-name="Rectangle 52" width="135" height="40" fill="none"/>
    </clipPath>
  </defs>
  <g id="Group_321" data-name="Group 321">
    <g id="Group_320" data-name="Group 320" clip-path-google="url(#clip-path-google)">
      <path id="Path_535" data-name="Path 535" d="M130,40H5a5.015,5.015,0,0,1-5-5V5A5.015,5.015,0,0,1,5,0H130a5.015,5.015,0,0,1,5,5V35a5.015,5.015,0,0,1-5,5" fill="#040504"/>
      <path id="Path_536" data-name="Path 536" d="M130,.8A4.2,4.2,0,0,1,134.2,5V35a4.2,4.2,0,0,1-4.2,4.2H5A4.2,4.2,0,0,1,.8,35V5A4.2,4.2,0,0,1,5,.8Zm0-.8H5A5.015,5.015,0,0,0,0,5V35a5.015,5.015,0,0,0,5,5H130a5.015,5.015,0,0,0,5-5V5a5.015,5.015,0,0,0-5-5" transform="translate(0 -0.001)" fill="#959595"/>
      <path id="Path_537" data-name="Path 537" d="M223.487,86.278a4.254,4.254,0,1,0,4.269,4.254,4.193,4.193,0,0,0-4.269-4.254m0,6.831a2.584,2.584,0,1,1,2.4-2.577,2.461,2.461,0,0,1-2.4,2.577m-9.314-6.831a4.254,4.254,0,1,0,4.27,4.254,4.193,4.193,0,0,0-4.27-4.254m0,6.831a2.584,2.584,0,1,1,2.4-2.577,2.46,2.46,0,0,1-2.4,2.577M203.1,87.584v1.8h4.317a3.765,3.765,0,0,1-.982,2.271A4.42,4.42,0,0,1,203.1,92.98a4.8,4.8,0,0,1,0-9.6,4.6,4.6,0,0,1,3.254,1.288l1.273-1.272a6.3,6.3,0,0,0-4.527-1.821,6.606,6.606,0,1,0,0,13.211,6.04,6.04,0,0,0,4.607-1.853,5.962,5.962,0,0,0,1.563-4.221,5.827,5.827,0,0,0-.1-1.127Zm45.308,1.4a3.954,3.954,0,0,0-3.641-2.707,4.042,4.042,0,0,0-4.011,4.254,4.162,4.162,0,0,0,4.22,4.253,4.232,4.232,0,0,0,3.545-1.885l-1.45-.967a2.43,2.43,0,0,1-2.1,1.176,2.164,2.164,0,0,1-2.062-1.288l5.687-2.353ZM242.6,90.4a2.333,2.333,0,0,1,2.223-2.481,1.645,1.645,0,0,1,1.579.9Zm-4.624,4.124h1.869v-12.5h-1.869Zm-3.061-7.3h-.064a2.948,2.948,0,0,0-2.239-.951,4.257,4.257,0,0,0,0,8.507,2.9,2.9,0,0,0,2.239-.967h.064v.612c0,1.628-.869,2.5-2.271,2.5a2.353,2.353,0,0,1-2.143-1.514l-1.627.677a4.052,4.052,0,0,0,3.77,2.513c2.191,0,4.044-1.289,4.044-4.43V86.536h-1.773Zm-2.142,5.88a2.587,2.587,0,0,1,0-5.155,2.6,2.6,0,0,1,0,5.155m24.381-11.083h-4.471v12.5h1.865V89.791h2.606a3.888,3.888,0,1,0,0-7.765m.048,6.025h-2.654V83.765H257.2a2.143,2.143,0,1,1,0,4.286m11.532-1.795a3.505,3.505,0,0,0-3.33,1.913l1.657.692a1.768,1.768,0,0,1,1.705-.917,1.8,1.8,0,0,1,1.962,1.608v.129a4.133,4.133,0,0,0-1.946-.482c-1.785,0-3.6.981-3.6,2.814a2.888,2.888,0,0,0,3.1,2.75,2.632,2.632,0,0,0,2.381-1.222h.064v.965h1.8V89.713c0-2.219-1.656-3.457-3.8-3.457m-.225,6.851c-.612,0-1.464-.306-1.464-1.062,0-.965,1.061-1.334,1.978-1.334a3.329,3.329,0,0,1,1.705.418,2.262,2.262,0,0,1-2.219,1.978m10.582-6.578-2.139,5.42h-.064l-2.22-5.42h-2.01L275.99,94.1l-1.9,4.214h1.946l5.131-11.789Zm-16.807,8h1.866v-12.5h-1.866Z" transform="translate(-155.351 -64.527)" fill="#fff"/>
      <path id="Path_538" data-name="Path 538" d="M58.835,92.948l-10.647,11.3s0,.005,0,.007a2.878,2.878,0,0,0,4.236,1.734l.034-.02,11.984-6.915Z" transform="translate(-38.118 -73.524)" fill="#e12a26"/>
      <path id="Path_539" data-name="Path 539" d="M108.99,72.362l-.01-.007-5.174-3-5.829,5.187,5.85,5.848,5.146-2.969a2.878,2.878,0,0,0,.017-5.06" transform="translate(-77.502 -54.862)" fill="#fdab00"/>
      <path id="Path_540" data-name="Path 540" d="M47.816,44.393a2.825,2.825,0,0,0-.1.74V65.1a2.77,2.77,0,0,0,.1.739L58.829,54.829Z" transform="translate(-37.746 -35.116)" fill="#356bb3"/>
      <path id="Path_541" data-name="Path 541" d="M58.912,47.032l5.51-5.509-11.97-6.94A2.881,2.881,0,0,0,48.187,36.3s0,0,0,0Z" transform="translate(-38.116 -27.031)" fill="#3d993d"/>
    </g>
  </g>
  <g id="Group_323" data-name="Group 323">
    <g id="Group_322" data-name="Group 322" clip-path-google="url(#clip-path-google)">
      <path id="Path_542" data-name="Path 542" d="M199.945,33.039h2.14a2.172,2.172,0,0,1,1.022.243,1.9,1.9,0,0,1,.74.679,1.9,1.9,0,0,1,0,1.966,1.9,1.9,0,0,1-.74.679,2.172,2.172,0,0,1-1.022.244H200.9v2.419h-.957Zm2.166,2.906a1.025,1.025,0,0,0,.77-.3.987.987,0,0,0,0-1.4,1.026,1.026,0,0,0-.77-.3H200.9v2Z" transform="translate(-158.161 -26.135)" fill="#fff"/>
      <path id="Path_543" data-name="Path 543" d="M225.381,38.445a3.146,3.146,0,0,1-1.161-1.179,3.4,3.4,0,0,1,0-3.28,3.147,3.147,0,0,1,1.161-1.179,3.219,3.219,0,0,1,4.441,1.179,3.4,3.4,0,0,1,0,3.28,3.261,3.261,0,0,1-4.441,1.179m2.788-.77a2.177,2.177,0,0,0,.818-.835,2.6,2.6,0,0,0,0-2.427,2.176,2.176,0,0,0-.818-.835,2.329,2.329,0,0,0-2.288,0,2.176,2.176,0,0,0-.818.835,2.6,2.6,0,0,0,0,2.427,2.177,2.177,0,0,0,.818.835,2.331,2.331,0,0,0,2.288,0" transform="translate(-177.029 -25.607)" fill="#fff"/>
      <path id="Path_544" data-name="Path 544" d="M260.559,33.038h2.332a2,2,0,0,1,.922.218,1.727,1.727,0,0,1,.674.6,1.5,1.5,0,0,1,.248.839,1.411,1.411,0,0,1-.23.8,1.5,1.5,0,0,1-.614.526v.043a1.571,1.571,0,0,1,.775.548,1.466,1.466,0,0,1,.287.9,1.6,1.6,0,0,1-.265.909,1.805,1.805,0,0,1-.713.618,2.175,2.175,0,0,1-.979.222h-2.436Zm2.288,2.619a.931.931,0,0,0,.7-.265.848.848,0,0,0,.261-.613.828.828,0,0,0-.256-.6.9.9,0,0,0-.666-.257h-1.366v1.74ZM263,38.38a.982.982,0,0,0,.726-.274.92.92,0,0,0-.009-1.318,1.027,1.027,0,0,0-.753-.278h-1.444V38.38Z" transform="translate(-206.108 -26.134)" fill="#fff"/>
      <rect id="Rectangle_53" data-name="Rectangle 53" width="0.957" height="6.229" transform="translate(60.097 6.904)" fill="#fff"/>
      <path id="Path_545" data-name="Path 545" d="M299.692,33.038h3.776v.9h-2.819V35.7h2.54v.9h-2.54v1.757h2.819v.9h-3.776Z" transform="translate(-237.063 -26.134)" fill="#fff"/>
      <path id="Path_546" data-name="Path 546" d="M324.171,33.039h2.184a2.14,2.14,0,0,1,1.022.243,1.841,1.841,0,0,1,.987,1.662,1.679,1.679,0,0,1-.4,1.109,1.965,1.965,0,0,1-1.014.648l-.009.043,1.714,2.471v.052h-1.1l-1.662-2.445h-.757v2.445h-.957Zm2.157,2.906a1.076,1.076,0,0,0,.761-.287.944.944,0,0,0,.309-.722,1,1,0,0,0-1.035-1h-1.235v2.01Z" transform="translate(-256.426 -26.135)" fill="#fff"/>
      <path id="Path_547" data-name="Path 547" d="M349.107,38.293l3.262-4.35h-3.123v-.9h4.228v.974l-3.236,4.35h3.271v.9h-4.4Z" transform="translate(-276.151 -26.134)" fill="#fff"/>
      <path id="Path_548" data-name="Path 548" d="M383.41,38.293l3.262-4.35h-3.123v-.9h4.228v.974l-3.236,4.35h3.271v.9h-4.4Z" transform="translate(-303.285 -26.134)" fill="#fff"/>
    </g>
  </g>
</svg>
