<svg xmlns="http://www.w3.org/2000/svg" xmlns:xlink="http://www.w3.org/1999/xlink" width="232.286" height="71.782" viewBox="0 0 232.286 71.782">
  <defs>
    <clipPath id="clip-path">
      <rect id="Rectangle_23" data-name="Rectangle 23" width="232.286" height="71.782" fill="none"/>
    </clipPath>
  </defs>
  <g id="Group_160" data-name="Group 160" transform="translate(0 0)">
    <path id="Path_425" data-name="Path 425" d="M.563,2.667V10.41H22.156L0,41.612v4.745H34.135v-7.8H11.481L34.135,6.538V2.667Z" transform="translate(0.001 11.634)" fill="#462136"/>
    <g id="Group_159" data-name="Group 159" transform="translate(0 0)">
      <g id="Group_158" data-name="Group 158" clip-path="url(#clip-path)">
        <path id="Path_426" data-name="Path 426" d="M24.38,10.394V24.372H36.922c5.244,0,7.491-3.5,7.491-6.987s-2.311-6.992-7.491-6.992ZM54.837,46.405h-9.8L32.305,31.8H24.38V46.405H16.144V2.656c6.928,0,13.85.059,20.778.059,10.3.064,15.722,6.928,15.722,14.483,0,5.989-2.74,12.043-11.041,13.727L54.837,45.842Z" transform="translate(70.422 11.587)" fill="#462136"/>
        <rect id="Rectangle_22" data-name="Rectangle 22" width="8.177" height="43.69" transform="translate(128.685 14.301)" fill="#462136"/>
        <path id="Path_427" data-name="Path 427" d="M57.984,2.667h9.051v.375L52.241,24.26,67.469,46.105v.252H58.23L47.061,29.944,35.892,46.357H26.653v-.252L41.817,24.26,27.087,3.042V2.667h9.051l10.923,16.29Z" transform="translate(116.262 11.636)" fill="#462136"/>
        <path id="Path_428" data-name="Path 428" d="M58.426,11.842l8.113,18.6H50.313ZM53.932,2.667l-19.6,43.69h8.923L47,38.116H69.847l3.684,8.242h8.987l-19.6-43.69Z" transform="translate(149.768 11.635)" fill="#462136"/>
        <path id="Path_429" data-name="Path 429" d="M42.284,38.116l3.684,8.242h8.987l-19.6-43.69H26.369l-19.6,43.69H15.7l3.743-8.242,3.308-7.679,8.113-18.6,8.113,18.6" transform="translate(29.535 11.637)" fill="#462136"/>
        <path id="Path_430" data-name="Path 430" d="M26.863,13.247l-.692,3.239h2.906a2.037,2.037,0,0,0,2.08-1.619,1.254,1.254,0,0,0-1.383-1.619Zm5.271,8.343H29.866l-2.225-3.383H25.8l-.724,3.383H23.169l2.172-10.134c1.6,0,3.207.016,4.81.016,2.386.016,3.3,1.6,2.928,3.357a3.937,3.937,0,0,1-3.239,3.18l2.322,3.453Z" transform="translate(101.065 49.974)" fill="#f26611"/>
        <path id="Path_431" data-name="Path 431" d="M26.764,12.481c-.295,1.373,1.786,1.373,2.08,0s-1.786-1.373-2.08,0m1.5,1.979-1.534,7.158H24.962L26.5,14.459Z" transform="translate(108.887 49.952)" fill="#f26611"/>
        <path id="Path_432" data-name="Path 432" d="M31.834,12.015l-1.5,2.386-1.721,2.976-.456-3.008-.477-2.354H25.759l1.517,7.169h1.909l4.574-7.169Z" transform="translate(112.363 52.41)" fill="#f26611"/>
        <path id="Path_433" data-name="Path 433" d="M29.055,15.716A1.613,1.613,0,0,0,30.7,17.882c2.778,0,3.705-4.316.928-4.316a2.633,2.633,0,0,0-2.574,2.15M34.1,12.161h1.689l-1.523,7.126H32.6l.134-1.04A3.44,3.44,0,0,1,30.154,19.5c-2.113.016-3.394-1.287-2.863-3.786a4.5,4.5,0,0,1,4.52-3.732,2.053,2.053,0,0,1,2.022,1.158Z" transform="translate(118.521 52.277)" fill="#f26611"/>
        <path id="Path_434" data-name="Path 434" d="M31.93,12.17,31.882,13a2.624,2.624,0,0,1,2.231-1.013,2.206,2.206,0,0,1,1.689.676l-1.126,1.534a1.441,1.441,0,0,0-1.169-.461,2.118,2.118,0,0,0-2.166,1.807l-.8,3.759H28.772l1.523-7.126Z" transform="translate(125.506 52.268)" fill="#f26611"/>
        <path id="Path_435" data-name="Path 435" d="M31.868,15.706c-.236,1.083.2,2.1,1.485,2.1a2.509,2.509,0,0,0,2.386-2.1,1.584,1.584,0,0,0-1.48-2.113,2.549,2.549,0,0,0-2.391,2.113m5.652,0a4.621,4.621,0,0,1-4.51,3.716c-2.316,0-3.351-1.662-2.906-3.716a4.634,4.634,0,0,1,4.483-3.716,2.84,2.84,0,0,1,2.933,3.716" transform="translate(130.877 52.303)" fill="#f26611"/>
        <path id="Path_436" data-name="Path 436" d="M37.955,12.017l-1.92,2.413-.885-2.413H33.038l-.016.059,1.6,3.453L31.376,19.1l-.011.043h2.113l2.059-2.386,1.035,2.386h2.107l.011-.043-1.721-3.571,3.083-3.453.016-.059Z" transform="translate(136.818 52.422)" fill="#f26611"/>
        <path id="Path_437" data-name="Path 437" d="M34.828,15.716a1.613,1.613,0,0,0,1.646,2.166c2.778,0,3.705-4.316.928-4.316a2.633,2.633,0,0,0-2.574,2.15m5.046-3.555h1.689L40.04,19.287H38.377l.134-1.04A3.44,3.44,0,0,1,35.927,19.5c-2.113.016-3.394-1.287-2.863-3.786a4.5,4.5,0,0,1,4.52-3.732,2.053,2.053,0,0,1,2.022,1.158Z" transform="translate(143.703 52.277)" fill="#f26611"/>
        <path id="Path_438" data-name="Path 438" d="M37.161,17.993a1.594,1.594,0,0,0,1.619,2.1,2.614,2.614,0,0,0,2.477-2.1,1.553,1.553,0,0,0-1.576-2.08,2.66,2.66,0,0,0-2.52,2.08m1.287-6.531L37.6,15.408a3.714,3.714,0,0,1,2.59-1.142c2.08,0,3.357,1.271,2.831,3.727a4.536,4.536,0,0,1-4.472,3.732,2.057,2.057,0,0,1-2.059-1.142l-.322.981H34.517l2.166-10.1Z" transform="translate(150.566 50)" fill="#f26611"/>
        <path id="Path_439" data-name="Path 439" d="M38.134,15.716a1.613,1.613,0,0,0,1.646,2.166c2.778,0,3.705-4.316.928-4.316a2.632,2.632,0,0,0-2.574,2.15m5.046-3.555h1.689l-1.523,7.126H41.683l.134-1.04A3.44,3.44,0,0,1,39.233,19.5c-2.113.016-3.394-1.287-2.863-3.786a4.5,4.5,0,0,1,4.52-3.732,2.053,2.053,0,0,1,2.021,1.158Z" transform="translate(158.124 52.277)" fill="#f26611"/>
        <path id="Path_440" data-name="Path 440" d="M43.134,19.235l.8-3.732c.231-1.083-.182-1.9-1.314-1.9a2.444,2.444,0,0,0-2.247,1.995l-.783,3.641H37.842L39.37,12.1h1.576l-.091.965A4,4,0,0,1,43.429,12c1.678,0,2.751,1.255,2.268,3.5l-.8,3.743Z" transform="translate(165.07 52.329)" fill="#f26611"/>
        <path id="Path_441" data-name="Path 441" d="M42.2,12.017l-.8,3.732c-.231,1.083.182,1.9,1.314,1.9a2.444,2.444,0,0,0,2.247-1.995l.783-3.641h1.748L45.96,19.154H44.383l.091-.965a3.947,3.947,0,0,1-2.649,1.067c-1.705,0-2.67-1.287-2.2-3.5l.8-3.743Z" transform="translate(172.336 52.421)" fill="#f26611"/>
        <path id="Path_442" data-name="Path 442" d="M45.743,19.248l.815-3.818c.2-.938-.107-1.791-1.072-1.791a2.124,2.124,0,0,0-1.9,1.791l-.815,3.818H41l1.528-7.137h1.63l-.054.863a2.608,2.608,0,0,1,2.091-.981,1.663,1.663,0,0,1,1.828,1.33,3.261,3.261,0,0,1,2.665-1.3c2.021,0,2.756,1.244,2.295,3.383l-.82,3.845H50.4l.82-3.845c.2-.944-.016-1.732-.971-1.732a2.12,2.12,0,0,0-1.93,1.759l-.815,3.818Z" transform="translate(178.859 52.316)" fill="#f26611"/>
        <path id="Path_443" data-name="Path 443" d="M18.98,11.979a4.255,4.255,0,1,1-4.252-4.252,4.252,4.252,0,0,1,4.252,4.252" transform="translate(45.671 33.707)" fill="#f26611"/>
        <path id="Path_444" data-name="Path 444" d="M32.474,4.252A4.255,4.255,0,1,1,28.221,0a4.252,4.252,0,0,1,4.252,4.252" transform="translate(104.533 0.002)" fill="#f26611"/>
      </g>
    </g>
  </g>
</svg>
