<svg xmlns="http://www.w3.org/2000/svg" width="116.65" height="82.094" viewBox="0 0 116.65 82.094">
  <g id="PLAY_btn" data-name="PLAY btn" style="isolation: isolate">
    <path id="Path_47" data-name="Path 47" d="M385.1,31.964c-4.211-5.005-11.985-7.047-26.832-7.047H304.377c-15.187,0-23.093,2.173-27.287,7.5C273,37.615,273,45.271,273,55.867v20.2c0,20.527,4.853,30.949,31.377,30.949h53.895c12.875,0,20.01-1.8,24.625-6.219,4.733-4.53,6.753-11.926,6.753-24.73v-20.2C389.65,44.693,389.334,36.992,385.1,31.964ZM347.89,68.752,323.417,81.543a3.763,3.763,0,0,1-5.506-3.335v-25.5a3.763,3.763,0,0,1,5.5-3.339l24.473,12.708a3.763,3.763,0,0,1,.009,6.675Z" transform="translate(-273 -24.917)" fill="#f26611"/>
  </g>
</svg>
