<?xml version="1.0" encoding="utf-8"?>
<!-- Generator: Adobe Illustrator 28.3.0, SVG Export Plug-In . SVG Version: 6.00 Build 0)  -->
<svg version="1.1" id="Layer_1" xmlns="http://www.w3.org/2000/svg" xmlns:xlink="http://www.w3.org/1999/xlink" x="0px" y="0px"
	 viewBox="0 0 16 16" style="enable-background:new 0 0 16 16;" xml:space="preserve">
<style type="text/css">
	.st0{fill:#5B2D45;}
	.st1{fill:#F48120;}
</style>
<g>
	<polygon class="st0" points="1.1,4.4 1.1,5.7 4.7,5.7 1,10.8 1,11.6 6.7,11.6 6.7,10.3 2.9,10.3 6.7,5 6.7,4.4 	"/>
	<polyline class="st0" points="12.9,10.2 13.5,11.6 15,11.6 11.7,4.4 10.2,4.4 7,11.6 8.5,11.6 9.1,10.2 9.7,9 11,5.9 12.3,9 	"/>
	<g>
		<path class="st1" d="M11.7,9.6c0,0.4-0.3,0.7-0.7,0.7c-0.4,0-0.7-0.3-0.7-0.7s0.3-0.7,0.7-0.7C11.4,8.9,11.7,9.2,11.7,9.6"/>
	</g>
</g>
</svg>
